<?xml version="1.0" encoding="UTF-8"?> <svg xmlns="http://www.w3.org/2000/svg" width="243" height="234" viewBox="0 0 243 234" fill="none"><g filter="url(#filter0_d_46_2447)"><rect x="8" y="8" width="219" height="210" rx="8" fill="white"></rect></g><path d="M74.2695 157.326V152.156L89.6385 130.16H97.2995V151.592H101.436V157.326H97.2995V164H90.7195V157.326H74.2695ZM91.1425 137.21L81.5075 151.592H91.1425V137.21ZM113.239 154.365C113.489 155.744 114.053 156.809 114.931 157.561C115.839 158.282 117.046 158.642 118.55 158.642C120.492 158.642 121.902 157.843 122.78 156.245C123.657 154.616 124.096 151.89 124.096 148.067C123.375 149.07 122.357 149.853 121.041 150.417C119.756 150.981 118.362 151.263 116.858 151.263C114.852 151.263 113.035 150.856 111.406 150.041C109.808 149.195 108.539 147.957 107.599 146.328C106.659 144.667 106.189 142.662 106.189 140.312C106.189 136.834 107.223 134.077 109.291 132.04C111.359 129.972 114.179 128.938 117.751 128.938C122.2 128.938 125.333 130.364 127.151 133.215C128.999 136.066 129.924 140.359 129.924 146.093C129.924 150.166 129.563 153.503 128.843 156.104C128.153 158.705 126.947 160.679 125.224 162.026C123.532 163.373 121.213 164.047 118.268 164.047C115.949 164.047 113.975 163.608 112.346 162.731C110.716 161.822 109.463 160.647 108.586 159.206C107.74 157.733 107.254 156.12 107.129 154.365H113.239ZM118.221 145.905C119.85 145.905 121.135 145.404 122.075 144.401C123.015 143.398 123.485 142.051 123.485 140.359C123.485 138.51 122.983 137.085 121.981 136.082C121.009 135.048 119.678 134.531 117.986 134.531C116.294 134.531 114.946 135.064 113.944 136.129C112.972 137.163 112.487 138.542 112.487 140.265C112.487 141.926 112.957 143.289 113.897 144.354C114.868 145.388 116.309 145.905 118.221 145.905ZM135.046 146.422C135.046 141.001 136.017 136.756 137.96 133.685C139.934 130.614 143.192 129.079 147.736 129.079C152.279 129.079 155.522 130.614 157.465 133.685C159.439 136.756 160.426 141.001 160.426 146.422C160.426 151.874 159.439 156.151 157.465 159.253C155.522 162.355 152.279 163.906 147.736 163.906C143.192 163.906 139.934 162.355 137.96 159.253C136.017 156.151 135.046 151.874 135.046 146.422ZM153.94 146.422C153.94 144.103 153.783 142.161 153.47 140.594C153.188 138.996 152.592 137.696 151.684 136.693C150.806 135.69 149.49 135.189 147.736 135.189C145.981 135.189 144.649 135.69 143.741 136.693C142.863 137.696 142.268 138.996 141.955 140.594C141.673 142.161 141.532 144.103 141.532 146.422C141.532 148.803 141.673 150.809 141.955 152.438C142.237 154.036 142.832 155.336 143.741 156.339C144.649 157.31 145.981 157.796 147.736 157.796C149.49 157.796 150.822 157.31 151.731 156.339C152.639 155.336 153.235 154.036 153.517 152.438C153.799 150.809 153.94 148.803 153.94 146.422Z" fill="#9A3334"></path><path d="M77.266 180.1C76.8793 179.287 76.3193 178.66 75.586 178.22C74.8527 177.767 73.9993 177.54 73.026 177.54C72.0527 177.54 71.1727 177.767 70.386 178.22C69.6127 178.66 68.9993 179.3 68.546 180.14C68.106 180.967 67.886 181.927 67.886 183.02C67.886 184.113 68.106 185.073 68.546 185.9C68.9993 186.727 69.6127 187.367 70.386 187.82C71.1727 188.26 72.0527 188.48 73.026 188.48C74.386 188.48 75.506 188.073 76.386 187.26C77.266 186.447 77.7793 185.347 77.926 183.96H72.366V182.48H79.866V183.88C79.7593 185.027 79.3994 186.08 78.786 187.04C78.1727 187.987 77.366 188.74 76.366 189.3C75.366 189.847 74.2527 190.12 73.026 190.12C71.7327 190.12 70.5527 189.82 69.486 189.22C68.4193 188.607 67.5727 187.76 66.946 186.68C66.3327 185.6 66.026 184.38 66.026 183.02C66.026 181.66 66.3327 180.44 66.946 179.36C67.5727 178.267 68.4193 177.42 69.486 176.82C70.5527 176.207 71.7327 175.9 73.026 175.9C74.506 175.9 75.8127 176.267 76.946 177C78.0927 177.733 78.926 178.767 79.446 180.1H77.266ZM92.2724 184.1C92.2724 184.447 92.2524 184.813 92.2124 185.2H83.4524C83.5191 186.28 83.8858 187.127 84.5524 187.74C85.2324 188.34 86.0524 188.64 87.0124 188.64C87.7991 188.64 88.4524 188.46 88.9724 188.1C89.5058 187.727 89.8791 187.233 90.0924 186.62H92.0524C91.7591 187.673 91.1724 188.533 90.2924 189.2C89.4124 189.853 88.3191 190.18 87.0124 190.18C85.9724 190.18 85.0391 189.947 84.2124 189.48C83.3991 189.013 82.7591 188.353 82.2924 187.5C81.8258 186.633 81.5924 185.633 81.5924 184.5C81.5924 183.367 81.8191 182.373 82.2724 181.52C82.7258 180.667 83.3591 180.013 84.1724 179.56C84.9991 179.093 85.9458 178.86 87.0124 178.86C88.0524 178.86 88.9724 179.087 89.7724 179.54C90.5724 179.993 91.1858 180.62 91.6124 181.42C92.0524 182.207 92.2724 183.1 92.2724 184.1ZM90.3924 183.72C90.3924 183.027 90.2391 182.433 89.9324 181.94C89.6258 181.433 89.2058 181.053 88.6724 180.8C88.1524 180.533 87.5724 180.4 86.9324 180.4C86.0124 180.4 85.2258 180.693 84.5724 181.28C83.9324 181.867 83.5658 182.68 83.4724 183.72H90.3924ZM96.4948 181.08C96.8681 180.427 97.4148 179.893 98.1348 179.48C98.8548 179.067 99.6748 178.86 100.595 178.86C101.581 178.86 102.468 179.093 103.255 179.56C104.041 180.027 104.661 180.687 105.115 181.54C105.568 182.38 105.795 183.36 105.795 184.48C105.795 185.587 105.568 186.573 105.115 187.44C104.661 188.307 104.035 188.98 103.235 189.46C102.448 189.94 101.568 190.18 100.595 190.18C99.6481 190.18 98.8148 189.973 98.0948 189.56C97.3881 189.147 96.8548 188.62 96.4948 187.98V190H94.6748V175.2H96.4948V181.08ZM103.935 184.48C103.935 183.653 103.768 182.933 103.435 182.32C103.101 181.707 102.648 181.24 102.075 180.92C101.515 180.6 100.895 180.44 100.215 180.44C99.5481 180.44 98.9281 180.607 98.3548 180.94C97.7948 181.26 97.3414 181.733 96.9948 182.36C96.6614 182.973 96.4948 183.687 96.4948 184.5C96.4948 185.327 96.6614 186.053 96.9948 186.68C97.3414 187.293 97.7948 187.767 98.3548 188.1C98.9281 188.42 99.5481 188.58 100.215 188.58C100.895 188.58 101.515 188.42 102.075 188.1C102.648 187.767 103.101 187.293 103.435 186.68C103.768 186.053 103.935 185.32 103.935 184.48ZM112.97 190.18C111.944 190.18 111.01 189.947 110.17 189.48C109.344 189.013 108.69 188.353 108.21 187.5C107.744 186.633 107.51 185.633 107.51 184.5C107.51 183.38 107.75 182.393 108.23 181.54C108.724 180.673 109.39 180.013 110.23 179.56C111.07 179.093 112.01 178.86 113.05 178.86C114.09 178.86 115.03 179.093 115.87 179.56C116.71 180.013 117.37 180.667 117.85 181.52C118.344 182.373 118.59 183.367 118.59 184.5C118.59 185.633 118.337 186.633 117.83 187.5C117.337 188.353 116.664 189.013 115.81 189.48C114.957 189.947 114.01 190.18 112.97 190.18ZM112.97 188.58C113.624 188.58 114.237 188.427 114.81 188.12C115.384 187.813 115.844 187.353 116.19 186.74C116.55 186.127 116.73 185.38 116.73 184.5C116.73 183.62 116.557 182.873 116.21 182.26C115.864 181.647 115.41 181.193 114.85 180.9C114.29 180.593 113.684 180.44 113.03 180.44C112.364 180.44 111.75 180.593 111.19 180.9C110.644 181.193 110.204 181.647 109.87 182.26C109.537 182.873 109.37 183.62 109.37 184.5C109.37 185.393 109.53 186.147 109.85 186.76C110.184 187.373 110.624 187.833 111.17 188.14C111.717 188.433 112.317 188.58 112.97 188.58ZM125.763 190.18C124.737 190.18 123.803 189.947 122.963 189.48C122.137 189.013 121.483 188.353 121.003 187.5C120.537 186.633 120.303 185.633 120.303 184.5C120.303 183.38 120.543 182.393 121.023 181.54C121.517 180.673 122.183 180.013 123.023 179.56C123.863 179.093 124.803 178.86 125.843 178.86C126.883 178.86 127.823 179.093 128.663 179.56C129.503 180.013 130.163 180.667 130.643 181.52C131.137 182.373 131.383 183.367 131.383 184.5C131.383 185.633 131.13 186.633 130.623 187.5C130.13 188.353 129.457 189.013 128.603 189.48C127.75 189.947 126.803 190.18 125.763 190.18ZM125.763 188.58C126.417 188.58 127.03 188.427 127.603 188.12C128.177 187.813 128.637 187.353 128.983 186.74C129.343 186.127 129.523 185.38 129.523 184.5C129.523 183.62 129.35 182.873 129.003 182.26C128.657 181.647 128.203 181.193 127.643 180.9C127.083 180.593 126.477 180.44 125.823 180.44C125.157 180.44 124.543 180.593 123.983 180.9C123.437 181.193 122.997 181.647 122.663 182.26C122.33 182.873 122.163 183.62 122.163 184.5C122.163 185.393 122.323 186.147 122.643 186.76C122.977 187.373 123.417 187.833 123.963 188.14C124.51 188.433 125.11 188.58 125.763 188.58ZM135.596 180.82C135.916 180.193 136.37 179.707 136.956 179.36C137.556 179.013 138.283 178.84 139.136 178.84V180.72H138.656C136.616 180.72 135.596 181.827 135.596 184.04V190H133.776V179.04H135.596V180.82ZM143.457 180.54V187C143.457 187.533 143.571 187.913 143.797 188.14C144.024 188.353 144.417 188.46 144.977 188.46H146.317V190H144.677C143.664 190 142.904 189.767 142.397 189.3C141.891 188.833 141.637 188.067 141.637 187V180.54H140.217V179.04H141.637V176.28H143.457V179.04H146.317V180.54H143.457ZM158.522 184.1C158.522 184.447 158.502 184.813 158.462 185.2H149.702C149.769 186.28 150.136 187.127 150.802 187.74C151.482 188.34 152.302 188.64 153.262 188.64C154.049 188.64 154.702 188.46 155.222 188.1C155.756 187.727 156.129 187.233 156.342 186.62H158.302C158.009 187.673 157.422 188.533 156.542 189.2C155.662 189.853 154.569 190.18 153.262 190.18C152.222 190.18 151.289 189.947 150.462 189.48C149.649 189.013 149.009 188.353 148.542 187.5C148.076 186.633 147.842 185.633 147.842 184.5C147.842 183.367 148.069 182.373 148.522 181.52C148.976 180.667 149.609 180.013 150.422 179.56C151.249 179.093 152.196 178.86 153.262 178.86C154.302 178.86 155.222 179.087 156.022 179.54C156.822 179.993 157.436 180.62 157.862 181.42C158.302 182.207 158.522 183.1 158.522 184.1ZM156.642 183.72C156.642 183.027 156.489 182.433 156.182 181.94C155.876 181.433 155.456 181.053 154.922 180.8C154.402 180.533 153.822 180.4 153.182 180.4C152.262 180.4 151.476 180.693 150.822 181.28C150.182 181.867 149.816 182.68 149.722 183.72H156.642ZM164.805 190.18C163.965 190.18 163.211 190.04 162.545 189.76C161.878 189.467 161.351 189.067 160.965 188.56C160.578 188.04 160.365 187.447 160.325 186.78H162.205C162.258 187.327 162.511 187.773 162.965 188.12C163.431 188.467 164.038 188.64 164.785 188.64C165.478 188.64 166.025 188.487 166.425 188.18C166.825 187.873 167.025 187.487 167.025 187.02C167.025 186.54 166.811 186.187 166.385 185.96C165.958 185.72 165.298 185.487 164.405 185.26C163.591 185.047 162.925 184.833 162.405 184.62C161.898 184.393 161.458 184.067 161.085 183.64C160.725 183.2 160.545 182.627 160.545 181.92C160.545 181.36 160.711 180.847 161.045 180.38C161.378 179.913 161.851 179.547 162.465 179.28C163.078 179 163.778 178.86 164.565 178.86C165.778 178.86 166.758 179.167 167.505 179.78C168.251 180.393 168.651 181.233 168.705 182.3H166.885C166.845 181.727 166.611 181.267 166.185 180.92C165.771 180.573 165.211 180.4 164.505 180.4C163.851 180.4 163.331 180.54 162.945 180.82C162.558 181.1 162.365 181.467 162.365 181.92C162.365 182.28 162.478 182.58 162.705 182.82C162.945 183.047 163.238 183.233 163.585 183.38C163.945 183.513 164.438 183.667 165.065 183.84C165.851 184.053 166.491 184.267 166.985 184.48C167.478 184.68 167.898 184.987 168.245 185.4C168.605 185.813 168.791 186.353 168.805 187.02C168.805 187.62 168.638 188.16 168.305 188.64C167.971 189.12 167.498 189.5 166.885 189.78C166.285 190.047 165.591 190.18 164.805 190.18Z" fill="#6699CD"></path><path d="M112.173 80.7467C106.541 79.2911 104.335 73.7827 105.185 68.1691C103.218 69.0512 101.004 68.5514 99.4276 67.2449C98.1508 66.1874 97.8228 64.5354 98.4331 63.1027C99.0435 61.6699 100.606 60.9263 102.248 61.0719C102.69 60.0407 103.176 59.1042 103.879 58.2589C105.836 55.9107 108.984 55.2987 111.733 56.7192L111.925 54.9865C112.073 53.6607 113.148 52.6331 114.269 52.2683C115.637 51.8211 116.994 52.263 117.952 53.2206C118.616 52.4402 119.383 51.9369 120.323 51.5791C120.949 48.433 123.048 45.8252 125.548 44.4205C131.488 41.0814 138.807 43.8751 141.402 50.1919C142.737 53.4415 142.449 56.9945 140.701 60.0162C138.702 63.4692 135.32 65.7315 131.804 67.5238C131.353 67.7535 131.035 68.0499 130.806 68.5023L128.594 72.855C127.714 74.5894 126.539 76.0643 125.169 77.4304C121.682 80.9098 116.894 81.9637 112.175 80.7449L112.173 80.7467ZM101.004 63.3236C100.22 63.6463 100.01 64.6705 100.459 65.2755C100.908 65.8805 101.616 66.2225 102.339 66.4172C104.794 67.0783 105.94 64.7599 106.694 62.5117C106.913 61.8575 107.513 61.5226 108.176 61.8032C108.642 62.0013 108.921 62.6011 108.691 63.1956C107.36 66.6574 106.425 70.8944 107.792 74.3579C108.642 76.515 110.382 78.1109 112.641 78.6948C116.894 79.7944 121.079 78.8176 124.097 75.5715C125.381 74.1913 126.395 72.6656 127.237 70.975L128.978 67.4782C129.369 66.6943 129.901 66.1348 130.672 65.7437C133.701 64.211 136.614 62.3942 138.524 59.5584C140.312 56.9051 140.652 53.6081 139.336 50.6917C137.03 45.5797 131.004 43.5121 126.244 46.4495C124.199 47.7104 122.649 49.9604 122.254 52.6085C122.18 53.1066 121.652 53.4187 121.214 53.5257C119.823 53.8659 118.922 55.0584 118.802 56.3281C118.673 57.7135 119.327 58.9762 120.53 59.6444C121.1 59.96 121.231 60.6317 120.902 61.149C120.597 61.6296 119.967 61.7558 119.409 61.4244C117.508 60.2915 116.343 58.2063 116.699 55.9774C116.836 55.1163 116.445 54.3675 115.542 54.2149C114.882 54.1027 114.118 54.5464 113.979 55.3653C113.555 57.8766 114.342 60.3844 116.014 62.2416C117.666 64.0777 120.065 65.0423 122.61 64.937C123.231 64.9107 123.671 65.5298 123.634 66.0086C123.585 66.6434 123.141 67.0169 122.487 67.0327C119.762 67.1029 117.171 66.1839 115.193 64.3829C115.019 66.326 114.965 68.6444 113.404 68.1779C112.964 68.0464 112.592 67.5255 112.72 66.9556C113.272 64.4863 113.365 61.221 111.729 59.3936C109.958 57.4154 106.843 57.6925 105.308 59.804C104.708 60.63 104.317 61.491 104.012 62.452C103.575 63.8305 102.235 62.8133 101.004 63.3201V63.3236Z" fill="#3E1F2A"></path><path d="M132.58 95.6654L139.969 89.8799C140.678 89.196 141.495 88.5366 141.899 87.6001L146.911 75.9573L146.936 66.2172C146.05 65.4123 144.771 65.5719 144.037 66.5206C143.07 68.0165 142.86 70.356 142.747 72.2693C142.709 72.9234 142.376 73.3653 141.714 73.3969C141.239 73.4179 140.62 72.9953 140.646 72.364C140.741 70.0947 141.034 67.2905 142.22 65.4929C143.405 63.6954 145.648 63.0816 147.588 64.1198C148.165 64.467 148.988 65.0475 148.988 65.8419L149.002 76.4396L143.87 88.3718C143.202 89.6327 142.351 90.6603 141.244 91.5495L134.308 96.9789L134.303 104.953C134.303 105.56 133.827 105.974 133.314 106C132.742 106.03 132.205 105.602 132.205 104.953V96.4195C132.203 96.2424 132.398 95.8092 132.58 95.6654Z" fill="#3E1F2A"></path><path d="M94.9587 89.8204L102.318 95.5795C102.597 95.797 102.798 96.1916 102.798 96.5458L102.795 104.951C102.795 105.558 102.318 105.972 101.806 105.998C101.232 106.028 100.697 105.6 100.697 104.951L100.692 96.9737L93.4661 91.3145C92.5015 90.4535 91.7368 89.5205 91.1318 88.3701L86 76.4396L86.0123 65.842C86.0123 65.0493 86.8348 64.4706 87.4136 64.1199C89.3165 63.1045 91.5123 63.6429 92.726 65.4159C93.966 67.2274 94.2554 70.0562 94.3536 72.364C94.3799 72.9936 93.7608 73.418 93.2872 73.397C92.6225 73.3672 92.2946 72.9252 92.2542 72.2693C92.1385 70.3736 91.9368 68.1201 91.0213 66.5961C90.3022 65.586 88.9798 65.3896 88.0643 66.2085L88.0888 75.9644L93.1013 87.602C93.4907 88.5069 94.2817 89.147 94.9587 89.8186V89.8204Z" fill="#3E1F2A"></path><path d="M134.68 78.8843L129.504 84.042C124.916 84.9487 121.685 88.9576 121.689 93.6663L121.701 104.95C121.68 105.562 121.235 105.972 120.705 106C120.147 106.03 119.593 105.606 119.595 104.95L119.637 93.0052C119.654 87.8125 123.444 83.4826 128.383 82.1164L133.001 77.5287C133.839 76.6957 134.773 76.017 135.832 75.512C138.136 74.4457 140.632 74.9859 142.435 76.7501C142.674 76.9833 142.96 77.3271 142.981 77.5849C143.01 77.9391 142.846 78.3249 142.581 78.5897L133.531 87.6195C133.061 88.0878 132.421 88.1176 132.007 87.7405C131.524 87.3021 131.51 86.5778 131.998 86.0921L140.315 77.8199C139.44 77.1271 138.249 76.936 137.109 77.3025C136.225 77.6743 135.409 78.1566 134.68 78.8843Z" fill="#3E1F2A"></path><path d="M105.57 84.0578L100.438 78.9598C98.7823 77.3149 96.6005 76.3766 94.6432 77.8006L103.037 86.1868C103.46 86.6095 103.43 87.2636 103.046 87.6529C102.662 88.0422 102.02 88.1229 101.559 87.6617L92.3825 78.5004C91.8265 77.9444 92.0019 77.2921 92.507 76.8115C93.9171 75.4787 95.6955 74.7194 97.6581 75.0578C99.0349 75.3647 100.343 75.9733 101.371 76.9834L106.55 82.0832C111.494 83.4493 115.223 87.7494 115.363 93.007L115.409 104.946C115.379 105.56 114.937 105.969 114.411 105.997C113.83 106.026 113.315 105.6 113.302 104.948L113.299 93.5313C113.299 88.9209 110.072 84.9803 105.571 84.0561L105.57 84.0578Z" fill="#3E1F2A"></path><defs><filter id="filter0_d_46_2447" x="0" y="0" width="243" height="234" filterUnits="userSpaceOnUse" color-interpolation-filters="sRGB"><feFlood flood-opacity="0" result="BackgroundImageFix"></feFlood><feColorMatrix in="SourceAlpha" type="matrix" values="0 0 0 0 0 0 0 0 0 0 0 0 0 0 0 0 0 0 127 0" result="hardAlpha"></feColorMatrix><feOffset dx="4" dy="4"></feOffset><feGaussianBlur stdDeviation="6"></feGaussianBlur><feComposite in2="hardAlpha" operator="out"></feComposite><feColorMatrix type="matrix" values="0 0 0 0 0 0 0 0 0 0 0 0 0 0 0 0 0 0 0.2 0"></feColorMatrix><feBlend mode="multiply" in2="BackgroundImageFix" result="effect1_dropShadow_46_2447"></feBlend><feBlend mode="normal" in="SourceGraphic" in2="effect1_dropShadow_46_2447" result="shape"></feBlend></filter></defs></svg> 