<?xml version="1.0" encoding="UTF-8"?> <svg xmlns="http://www.w3.org/2000/svg" width="63" height="63" viewBox="0 0 63 63" fill="none"><path d="M26.1728 37.7475C20.5412 36.292 18.3348 30.7836 19.1855 25.17C17.2176 26.0521 15.0043 25.5523 13.4276 24.2458C12.1508 23.1883 11.8228 21.5363 12.4331 20.1035C13.0435 18.6708 14.6062 17.9272 16.2478 18.0727C16.6897 17.0416 17.1755 16.1051 17.8788 15.2598C19.8361 12.9116 22.9843 12.2996 25.7326 13.7201L25.9255 11.9874C26.0728 10.6616 27.1479 9.63392 28.2686 9.26915C29.6366 8.82196 30.9941 9.26389 31.9517 10.2214C32.6164 9.44102 33.3829 8.93771 34.3229 8.57995C34.949 5.43381 37.0484 2.82605 39.5476 1.42134C45.4879 -1.91771 52.8067 0.875935 55.4024 7.19277C56.7371 10.4424 56.4495 13.9954 54.7009 17.017C52.7015 20.4701 49.3201 22.7323 45.8036 24.5246C45.3529 24.7543 45.0354 25.0507 44.8057 25.5032L42.5941 29.8559C41.7136 31.5903 40.5386 33.0651 39.1688 34.4313C35.6822 37.9106 30.8941 38.9646 26.1745 37.7458L26.1728 37.7475ZM15.0043 20.3245C14.2203 20.6472 14.0098 21.6713 14.4588 22.2764C14.9078 22.8814 15.6164 23.2234 16.339 23.418C18.7943 24.0792 19.9396 21.7608 20.6938 19.5125C20.913 18.8584 21.5128 18.5234 22.1758 18.804C22.6423 19.0022 22.9212 19.602 22.6914 20.1965C21.3602 23.6583 20.4254 27.8952 21.7917 31.3588C22.6423 33.5158 24.3821 35.1117 26.6411 35.6957C30.8941 36.7953 35.0788 35.8185 38.0972 32.5723C39.381 31.1922 40.3947 29.6665 41.2366 27.9759L42.9782 24.479C43.3693 23.6951 43.9007 23.1357 44.6724 22.7446C47.7013 21.2119 50.6144 19.395 52.5244 16.5593C54.3115 13.9059 54.6518 10.609 53.3364 7.69258C51.0301 2.58053 45.0039 0.512919 40.2439 3.45037C38.1989 4.71128 36.6485 6.96128 36.2539 9.60937C36.1803 10.1074 35.6523 10.4196 35.2139 10.5266C33.8231 10.8668 32.9216 12.0593 32.8023 13.329C32.6726 14.7144 33.3267 15.9771 34.5299 16.6452C35.0999 16.9609 35.2314 17.6326 34.9017 18.1499C34.5965 18.6304 33.9669 18.7567 33.4092 18.4252C31.508 17.2923 30.3434 15.2072 30.6995 12.9782C30.8363 12.1172 30.4452 11.3683 29.5419 11.2158C28.8825 11.1035 28.1178 11.5472 27.9793 12.3662C27.5548 14.8775 28.3423 17.3853 30.0137 19.2425C31.6658 21.0786 34.0651 22.0431 36.6099 21.9379C37.2308 21.9116 37.671 22.5307 37.6342 23.0094C37.5851 23.6443 37.1414 24.0178 36.4872 24.0336C33.7617 24.1037 31.1713 23.1848 29.1929 21.3837C29.0193 23.3268 28.9649 25.6452 27.404 25.1787C26.9638 25.0472 26.592 24.5264 26.72 23.9564C27.2725 21.4872 27.3654 18.2218 25.7291 16.3944C23.9577 14.4163 20.8428 14.6934 19.3082 16.8048C18.7084 17.6308 18.3173 18.4919 18.0121 19.4529C17.5754 20.8313 16.2355 19.8142 15.0043 20.321V20.3245Z" fill="#3E1F2A"></path><path d="M46.5804 52.6663L53.9694 46.8808C54.6779 46.1968 55.4952 45.5375 55.8986 44.601L60.9111 32.9581L60.9357 23.2181C60.05 22.4131 58.7714 22.5727 58.0366 23.5215C57.0702 25.0174 56.8597 27.3568 56.7475 29.2701C56.7089 29.9242 56.3757 30.3662 55.7145 30.3977C55.2392 30.4188 54.6201 29.9961 54.6464 29.3648C54.7411 27.0955 55.034 24.2913 56.2196 22.4938C57.4052 20.6963 59.6483 20.0825 61.5881 21.1207C62.1651 21.4679 62.9877 22.0484 62.9877 22.8428L63.0017 33.4404L57.8699 45.3726C57.2017 46.6335 56.3511 47.6612 55.2444 48.5503L48.308 53.9798L48.3027 61.9539C48.3027 62.5606 47.8274 62.9745 47.3135 63.0008C46.7418 63.0306 46.2051 62.6027 46.2051 61.9539V53.4203C46.2033 53.2432 46.398 52.8101 46.5804 52.6663Z" fill="#3E1F2A"></path><path d="M8.95866 46.8212L16.3178 52.5804C16.5967 52.7979 16.7984 53.1924 16.7984 53.5467L16.7949 61.9522C16.7949 62.559 16.3178 62.9728 15.8057 62.9991C15.2322 63.029 14.6973 62.6011 14.6973 61.9522L14.692 53.9746L7.46613 48.3154C6.50152 47.4543 5.73684 46.5214 5.13176 45.3709L0 33.4405L0.0122769 22.8429C0.0122769 22.0502 0.834832 21.4715 1.4136 21.1207C3.31653 20.1053 5.51235 20.6437 6.72601 22.4167C7.96598 24.2283 8.25537 27.057 8.35358 29.3649C8.37989 29.9945 7.76078 30.4189 7.28724 30.3978C6.62253 30.368 6.29456 29.9261 6.25422 29.2702C6.13847 27.3744 5.93678 25.1209 5.02127 23.597C4.30219 22.5868 2.97979 22.3904 2.06428 23.2094L2.08883 32.9652L7.10133 44.6028C7.49069 45.5077 8.28167 46.1478 8.95866 46.8195V46.8212Z" fill="#3E1F2A"></path><path d="M48.6796 35.8852L43.504 41.0428C38.9159 41.9495 35.6853 45.9585 35.6888 50.6672L35.7011 61.9505C35.6801 62.5625 35.2346 62.9729 34.7049 63.0009C34.1472 63.0308 33.593 62.6064 33.5947 61.9505L33.6368 50.006C33.6544 44.8133 37.4444 40.4834 42.3833 39.1173L47.0011 34.5296C47.8395 33.6966 48.7725 33.0179 49.8319 32.5128C52.1364 31.4466 54.6321 31.9867 56.4351 33.7509C56.6736 33.9842 56.9595 34.3279 56.9806 34.5857C57.0104 34.94 56.8455 35.3258 56.5807 35.5906L47.5308 44.6204C47.0608 45.0886 46.4206 45.1184 46.0067 44.7414C45.5244 44.303 45.5104 43.5787 45.9979 43.0929L54.3147 34.8207C53.4395 34.128 52.2487 33.9368 51.1087 34.3034C50.2247 34.6752 49.4092 35.1574 48.6796 35.8852Z" fill="#3E1F2A"></path><path d="M19.5697 41.0587L14.4379 35.9607C12.7823 34.3157 10.6005 33.3775 8.64323 34.8015L17.0371 43.1877C17.4598 43.6103 17.43 44.2645 17.0459 44.6538C16.6618 45.0431 16.0199 45.1238 15.5587 44.6625L6.38252 35.5012C5.82655 34.9453 6.00193 34.2929 6.50704 33.8124C7.91713 32.4796 9.69554 31.7202 11.6581 32.0587C13.0349 32.3656 14.3432 32.9741 15.371 33.9843L20.5501 39.084C25.4942 40.4502 29.2229 44.7502 29.3632 50.0078L29.4088 61.947C29.379 62.5608 28.937 62.9694 28.4109 62.9975C27.8303 63.0273 27.3147 62.6012 27.3024 61.9488L27.2989 50.5322C27.2989 45.9217 24.0718 41.9811 19.5715 41.0569L19.5697 41.0587Z" fill="#3E1F2A"></path></svg> 